HIERARCHY
ROOT Hips
{
	OFFSET 0.00000 0.00000 0.00000
	CHANNELS 6 Xposition Yposition Zposition Zrotation Yrotation Xrotation 
	JOINT LHipJoint
	{
		OFFSET 0 0 0
		CHANNELS 3 Zrotation Yrotation Xrotation
		JOINT LeftUpLeg
		{
			OFFSET 1.75344 -1.53157 0.77399
			CHANNELS 3 Zrotation Yrotation Xrotation
			JOINT LeftLeg
			{
				OFFSET 2.25415 -6.19323 0.00000
				CHANNELS 3 Zrotation Yrotation Xrotation
				JOINT LeftFoot
				{
					OFFSET 2.30342 -6.32861 0.00000
					CHANNELS 3 Zrotation Yrotation Xrotation
					JOINT LeftToeBase
					{
						OFFSET 0.10958 -0.30108 1.49206
						CHANNELS 3 Zrotation Yrotation Xrotation
						End Site
						{
							OFFSET 0.00000 -0.00000 0.77783
						}
					}
				}
			}
		}
	}
	JOINT RHipJoint
	{
		OFFSET 0 0 0
		CHANNELS 3 Zrotation Yrotation Xrotation
		JOINT RightUpLeg
		{
			OFFSET -1.81912 -1.53156 0.77399
			CHANNELS 3 Zrotation Yrotation Xrotation
			JOINT RightLeg
			{
				OFFSET -2.22882 -6.12365 0.00000
				CHANNELS 3 Zrotation Yrotation Xrotation
				JOINT RightFoot
				{
					OFFSET -2.21943 -6.09785 0.00000
					CHANNELS 3 Zrotation Yrotation Xrotation
					JOINT RightToeBase
					{
						OFFSET -0.18931 -0.52012 1.59379
						CHANNELS 3 Zrotation Yrotation Xrotation
						End Site
						{
							OFFSET -0.00000 -0.00000 0.84686
						}
					}
				}
			}
		}
	}
	JOINT LowerBack
	{
		OFFSET 0 0 0
		CHANNELS 3 Zrotation Yrotation Xrotation
		JOINT Spine
		{
			OFFSET -0.00200 1.66634 -0.14248
			CHANNELS 3 Zrotation Yrotation Xrotation
			JOINT Spine1
			{
				OFFSET -0.00875 1.64542 0.09514
				CHANNELS 3 Zrotation Yrotation Xrotation
				JOINT Neck
				{
					OFFSET 0 0 0
					CHANNELS 3 Zrotation Yrotation Xrotation
					JOINT Neck1
					{
						OFFSET 0.02257 1.59605 0.00839
						CHANNELS 3 Zrotation Yrotation Xrotation
						JOINT Head
						{
							OFFSET -0.10214 1.57530 -0.23335
							CHANNELS 3 Zrotation Yrotation Xrotation
							End Site
							{
								OFFSET -0.03588 1.60717 -0.08062
							}
						}
					}
				}
				JOINT LeftShoulder
				{
					OFFSET 0 0 0
					CHANNELS 3 Zrotation Yrotation Xrotation
					JOINT LeftArm
					{
						OFFSET 2.54983 1.10186 0.40078
						CHANNELS 3 Zrotation Yrotation Xrotation
						JOINT LeftForeArm
						{
							OFFSET 4.28840 -0.00000 0.00000
							CHANNELS 3 Zrotation Yrotation Xrotation
							JOINT LeftHand
							{
								OFFSET 3.06552 -0.00000 -0.00000
								CHANNELS 3 Zrotation Yrotation Xrotation
								JOINT LeftFingerBase
								{
									OFFSET 0 0 0
									CHANNELS 3 Zrotation Yrotation Xrotation
									JOINT LeftHandIndex1
									{
										OFFSET 0.75304 -0.00000 0.00000
										CHANNELS 3 Zrotation Yrotation Xrotation
										End Site
										{
											OFFSET 0.60712 -0.00000 0.00000
										}
									}
								}
								JOINT LThumb
								{
									OFFSET 0 0 0
									CHANNELS 3 Zrotation Yrotation Xrotation
									End Site
									{
										OFFSET 0.61639 -0.00000 0.61639
									}
								}
							}
						}
					}
				}
				JOINT RightShoulder
				{
					OFFSET 0 0 0
					CHANNELS 3 Zrotation Yrotation Xrotation
					JOINT RightArm
					{
						OFFSET -2.60909 1.35448 0.21802
						CHANNELS 3 Zrotation Yrotation Xrotation
						JOINT RightForeArm
						{
							OFFSET -4.52172 -0.00000 -0.00000
							CHANNELS 3 Zrotation Yrotation Xrotation
							JOINT RightHand
							{
								OFFSET -2.89140 -0.00000 0.00000
								CHANNELS 3 Zrotation Yrotation Xrotation
								JOINT RightFingerBase
								{
									OFFSET 0 0 0
									CHANNELS 3 Zrotation Yrotation Xrotation
									JOINT RightHandIndex1
									{
										OFFSET -0.68054 -0.00000 0.00000
										CHANNELS 3 Zrotation Yrotation Xrotation
										End Site
										{
											OFFSET -0.54867 -0.00000 0.00000
										}
									}
								}
								JOINT RThumb
								{
									OFFSET 0 0 0
									CHANNELS 3 Zrotation Yrotation Xrotation
									End Site
									{
										OFFSET -0.55705 -0.00000 0.55705
									}
								}
							}
						}
					}
				}
			}
		}
	}
}
MOTION
Frames: 12
Frame Time: 0.0333333
0.00 0.00 0.00 0 0 0 0 0 0 -21 0 0 0 0 0 0 0 0 0 0 0 0 0 0 21 0 0 0 0 0 0 0 0 0 0 0 0 0 0 0 0 0 0 0 0 0 0 -16 0 0 21 0 0 11 0 0 0 -8 0 0 0 0 0 0 0 0 0 0 0 0 0 0 0 0 0 0 0 0 8 0 0 0 0 0 0 0 0 0 0 0 0 0 0 0 0 0
0.00 0.00 0.00 180.3340 -15.7507 182.9390 0.0000 0.0000 0.0000 -23.6654 -27.8488 -6.9835 2.6627 10.1278 29.3917 1.4978 1.2443 -23.6114 4.8821 -13.2497 -40.3106 0.0000 0.0000 0.0000 23.7688 5.8263 -9.9692 -2.4570 -9.7592 28.2005 -1.7898 -19.9210 -38.7781 -1.3352 -7.3168 20.6573 1.6489 1.9909 5.9955 -3.9650 2.5197 0.2224 -5.2491 1.1594 -2.8803 11.6612 13.9359 2.8341 -11.1311 19.2624 7.5954 -4.3370 9.5345 4.0288 -0.0000 -0.0000 0.0000 -80.4102 18.3671 15.8181 22.5213 -33.5612 -6.8718 -0.0000 -0.0000 20.0850 16.5000 -32.7009 -9.0920 -7.1250 0.0000 -0.0000 -8.6767 -3.4822 9.2923 -0.0000 -0.0000 0.0000 80.7712 -13.8528 46.7903 -24.4437 35.6300 -7.9636 0.0000 0.0000 19.6136 -29.2598 -52.8584 24.0656 7.1250 -0.0000 -0.0000 -6.4207 4.0077 -174.0053
0.00 0.00 0.00 177.7840 1.2857 179.4190 0.0000 0.0000 0.0000 -28.8546 -11.9607 -7.4194 3.2394 11.0729 32.5260 2.5190 1.3455 -30.5396 2.7136 -10.2163 -29.6801 0.0000 0.0000 0.0000 16.6034 10.5171 -19.5533 -8.0828 -16.1798 52.8603 -0.8714 -9.9345 -23.8750 -0.0129 0.7330 -2.0144 -1.4647 0.9309 6.7088 -4.1834 1.2525 0.7653 -3.6271 0.7262 -2.9077 -1.3281 4.0204 0.8891 -0.8370 5.0280 10.0474 0.0648 2.2192 3.0369 -0.0000 0.0000 0.0000 -80.7599 17.1868 11.7610 19.8034 -30.4047 -5.4315 -0.0000 -0.0000 21.3498 11.4194 -32.9977 -6.2775 -7.1250 0.0000 -0.0000 -11.5378 -2.9456 12.3638 -0.0000 0.0000 0.0000 77.2340 -12.2777 32.9500 -23.1872 34.2928 -7.2435 0.0000 0.0000 16.5087 -15.8761 -55.3732 13.1718 7.1250 -0.0000 -0.0000 -11.9881 5.4749 -168.9604
0.00 0.00 0.00 176.6780 7.1025 176.8730 0.0000 0.0000 0.0000 -31.0081 -6.6384 -8.5502 4.0359 12.2081 36.4720 2.9611 2.4887 -33.4995 2.4177 -9.6867 -27.9681 0.0000 0.0000 0.0000 14.1203 14.9786 -29.7408 -13.7666 -19.0417 71.4905 -0.1206 -11.5616 -18.0361 -0.0946 -1.9831 5.4590 -1.5408 0.2750 8.8713 -4.3636 0.4865 2.5062 -3.7191 0.4121 -2.3448 -2.6949 3.6191 -1.1499 -0.3821 5.2895 8.5001 0.4900 2.6539 2.8396 0.0000 -0.0000 0.0000 -77.7319 8.1000 9.4317 18.1199 -28.3104 -4.6060 -0.0000 -0.0000 25.4136 8.6515 -30.0226 -4.3535 -7.1250 0.0000 -0.0000 -12.9011 0.3366 13.1638 0.0000 -0.0000 0.0000 76.1415 -12.3795 29.4779 -21.3843 32.2742 -6.2539 0.0000 0.0000 16.5141 -19.9049 -53.9577 16.3190 7.1250 -0.0000 -0.0000 -10.2391 5.7385 -170.6825
0.00 0.00 0.00 175.9960 18.7295 180.8920 0.0000 0.0000 0.0000 -36.0334 3.0995 9.5541 1.2354 7.0483 19.8587 0.1412 10.2437 -16.6380 2.5756 -9.9741 -28.8930 0.0000 0.0000 0.0000 19.7165 22.6388 -20.6007 -3.0737 -10.8134 31.6530 -0.5541 -10.9613 -22.0024 -0.0328 -1.1688 3.2134 2.1271 -6.1181 1.3464 4.7419 -7.8115 -1.9417 3.9479 -3.8162 -2.3743 9.6454 9.4586 -1.8147 -8.9386 13.1982 8.3134 -3.6043 6.5672 4.0090 -0.0000 0.0000 0.0000 -77.3094 -1.5510 21.5821 22.5384 -33.5802 -6.8813 -0.0000 -0.0000 15.1288 22.0454 -33.4327 -12.5772 -7.1250 0.0000 -0.0000 -5.6898 -5.3255 6.2229 -0.0000 0.0000 0.0000 67.3847 -28.6097 23.3674 -24.3807 35.5642 -7.9269 0.0000 0.0000 18.7796 -16.8088 -58.3180 14.4167 7.1250 -0.0000 -0.0000 -12.0825 2.5686 -168.2024
0.00 0.00 0.00 174.9230 17.2261 180.9810 0.0000 0.0000 0.0000 -33.7749 7.7921 5.0210 2.7257 10.2373 29.7485 -0.1331 7.1451 0.6558 1.9261 -8.7104 -24.8935 0.0000 0.0000 0.0000 20.3056 23.1855 -14.5400 -3.2129 -11.0320 32.3880 -0.2771 -13.6943 -22.3832 -0.8265 -5.8003 16.2060 2.2667 -6.2779 0.2283 6.8019 -7.7719 -3.1124 5.9584 -3.6871 -2.7040 11.9281 8.2884 -3.7931 -11.8753 11.8796 10.5436 -4.8457 5.8303 5.2044 -0.0000 -0.0000 0.0000 -80.9091 6.1330 32.2259 29.0499 -40.0650 -10.7928 -0.0000 -0.0000 10.2747 17.5244 -34.6242 -10.1716 -7.1250 0.0000 -0.0000 -8.3507 -5.5890 9.2186 -0.0000 -0.0000 0.0000 68.7434 -27.6709 22.5538 -23.4772 34.6065 -7.4075 0.0000 0.0000 19.0046 -17.4842 -56.8513 14.7743 7.1250 -0.0000 -0.0000 -11.6159 3.7301 -168.9304
0.00 0.00 0.00 175.1540 16.3707 180.3450 0.0000 0.0000 0.0000 -30.4481 10.5481 -3.4038 6.4056 14.8102 46.5885 0.1474 4.8231 7.1325 1.6111 -8.0042 -22.7267 0.0000 0.0000 0.0000 21.7723 20.9565 -13.0409 -3.7374 -11.8025 35.0370 -0.9671 -11.7999 -26.2963 -1.2086 -6.9744 19.6396 2.0118 -6.5368 0.9862 8.0012 -7.8900 -3.4791 7.4925 -3.6587 -3.3044 8.4152 8.4281 -0.2938 -10.4099 12.1616 7.9741 -4.0181 6.0626 3.5684 0.0000 -0.0000 0.0000 -83.6065 12.6723 36.0781 36.5091 -45.8601 -15.8868 -0.0000 -0.0000 7.0998 17.3404 -33.3487 -9.7398 -7.1250 0.0000 -0.0000 -8.2866 -4.2825 8.9737 0.0000 -0.0000 0.0000 67.4258 -26.4741 25.6153 -21.7641 32.7094 -6.4579 0.0000 0.0000 20.6743 -15.6600 -56.1027 13.0990 7.1250 -0.0000 -0.0000 -12.1657 4.8600 -168.6444
0.00 0.00 0.00 176.8660 15.4461 180.6930 0.0000 0.0000 0.0000 -26.8434 9.6143 -12.7220 11.6975 18.2598 65.0268 0.0486 5.7151 5.2921 1.5953 -7.9666 -22.6126 0.0000 0.0000 0.0000 23.9941 18.8038 -14.0683 -4.4737 -12.7655 38.4967 -1.1305 -11.8315 -27.5404 -1.0384 -6.4810 18.1867 3.1884 -5.9010 1.4039 8.8490 -6.7984 -3.1954 7.7543 -3.0607 -3.4125 5.8404 7.9330 0.2855 -9.0430 11.2625 5.8027 -3.6973 5.6476 2.8001 -0.0000 0.0000 0.0000 -84.5018 12.1361 41.6402 37.2367 -46.3448 -16.4111 -0.0000 -0.0000 2.6599 17.0677 -33.8582 -9.7068 -7.1250 0.0000 -0.0000 -8.5017 -4.7395 9.2742 -0.0000 0.0000 0.0000 68.2059 -24.0084 24.8780 -19.7836 30.3808 -5.4215 0.0000 0.0000 21.0785 -13.3965 -55.0188 11.0420 7.1250 -0.0000 -0.0000 -12.8835 6.3957 -168.3255
0.00 0.00 0.00 178.9580 14.1166 179.1920 0.0000 0.0000 0.0000 -22.4830 6.2800 -20.3931 17.7895 19.8824 83.5247 -0.0162 3.4532 1.5236 1.2509 -7.0909 -19.9849 0.0000 0.0000 0.0000 26.9928 15.5628 -13.4269 -5.3682 -13.7868 42.3901 -1.7780 -10.0665 -30.5334 -1.1940 -6.9337 19.5192 4.5885 -4.8659 3.9870 8.9693 -5.1224 -1.8531 7.1974 -2.2161 -3.7745 5.4895 7.0329 -1.5218 -8.7675 9.8081 4.3729 -3.5495 4.8735 2.4821 0.0000 -0.0000 0.0000 -85.1332 15.6003 43.2100 45.2683 -50.8993 -22.4468 -0.0000 -0.0000 4.4312 18.3933 -34.5459 -10.6785 -7.1250 0.0000 -0.0000 -7.8651 -5.6808 8.6837 0.0000 -0.0000 0.0000 70.2062 -20.2548 23.1509 -17.4599 27.4601 -4.2973 0.0000 0.0000 23.4083 -13.4546 -53.9678 10.9498 7.1250 -0.0000 -0.0000 -12.7535 7.3525 -168.6924
0.00 0.00 0.00 185.2940 5.8567 174.6990 0.0000 0.0000 0.0000 -8.9676 -15.6540 -39.4662 21.7991 19.9222 95.2668 0.4827 4.6291 -15.6396 1.4854 -7.7001 -21.8067 0.0000 0.0000 0.0000 34.5794 2.2131 -11.3973 -7.4695 -15.7148 50.6284 -3.7366 -7.4274 -39.5777 -0.9590 -6.2356 17.4694 6.7047 -2.5387 10.1242 9.7942 -0.7622 -0.2425 6.7577 0.1025 -6.0051 4.4342 2.1620 -1.3920 -8.3367 3.0184 0.5125 -3.4352 1.5260 0.6207 0.0000 0.0000 0.0000 -89.0038 21.1286 42.9258 36.2663 -45.6955 -15.7128 -0.0000 -0.0000 11.6397 23.7909 -37.3710 -14.9809 -7.1250 0.0000 -0.0000 -5.4415 -9.7120 6.3076 0.0000 0.0000 0.0000 68.3546 -8.1817 27.1565 -14.7880 23.8499 -3.1397 0.0000 0.0000 33.9642 -14.8646 -54.5196 12.1959 7.1250 -0.0000 -0.0000 -12.2650 6.5053 -168.9408
0.00 0.00 0.00 184.8670 5.3976 174.0170 0.0000 0.0000 0.0000 -7.8920 -19.5880 -38.4705 15.4863 19.5043 76.6971 0.6473 7.8574 -20.0353 0.6137 -5.0140 -13.9484 0.0000 0.0000 0.0000 34.1384 -0.2483 -7.2583 -6.6226 -15.0056 47.4320 -3.7910 -6.8191 -39.5511 -0.7489 -5.5277 15.4200 6.7292 -1.0060 8.1141 8.6816 0.6584 0.5599 5.2437 0.7133 -4.0732 3.1367 0.7604 -1.3983 -7.7915 1.1718 0.6041 -3.0234 0.6063 0.5042 -0.0000 0.0000 0.0000 -87.8595 22.7514 38.6869 30.1438 -41.0163 -11.5039 -0.0000 -0.0000 14.7522 22.4889 -37.0277 -13.9986 -7.1250 0.0000 -0.0000 -6.0627 -9.0533 6.9773 -0.0000 0.0000 0.0000 67.4908 -4.2327 30.0452 -16.1427 25.7137 -3.7077 0.0000 0.0000 28.7982 -15.2998 -54.6532 12.5788 7.1250 -0.0000 -0.0000 -12.1134 6.2766 -169.0294
0.00 0.00 0.00 184.3880 4.5835 174.0120 0.0000 0.0000 0.0000 -7.2908 -22.8538 -34.7309 9.3240 17.0118 57.2041 0.4848 8.7882 -19.1713 0.9394 -6.1735 -17.2886 0.0000 0.0000 0.0000 33.4674 -2.2820 -4.0591 -5.5695 -13.9977 43.2284 -3.2462 -7.6252 -37.2900 -0.5573 -4.7817 13.2870 6.8553 0.3358 7.2639 7.6158 2.1165 0.5243 3.8700 1.3464 -3.6332 1.9157 -0.7070 -1.3698 -7.2822 -0.7234 1.3224 -2.6427 -0.3475 0.6148 -0.0000 -0.0000 0.0000 -86.1288 24.2147 34.5465 26.8901 -38.0742 -9.4313 -0.0000 -0.0000 16.5473 16.8213 -34.6775 -9.7599 -7.1250 0.0000 -0.0000 -8.7417 -5.5083 9.6487 -0.0000 -0.0000 0.0000 66.8472 -1.6355 30.2876 -16.2632 25.8762 -3.7601 0.0000 0.0000 29.1356 -13.7717 -54.2899 11.2557 7.1250 -0.0000 -0.0000 -12.6623 6.9795 -168.6832
